<svg xmlns="http://www.w3.org/2000/svg" xmlns:xlink="http://www.w3.org/1999/xlink" width="500" zoomAndPan="magnify" viewBox="0 0 375 374.999991" height="500" preserveAspectRatio="xMidYMid meet" version="1.0"><defs><filter x="0%" y="0%" width="100%" height="100%" id="15bfc53e6c"><feColorMatrix values="0 0 0 0 1 0 0 0 0 1 0 0 0 0 1 0 0 0 1 0" color-interpolation-filters="sRGB"/></filter><g/><clipPath id="4cf65dfda3"><path d="M 88.464844 198.410156 L 333.628906 198.410156 L 333.628906 225.675781 L 88.464844 225.675781 Z M 88.464844 198.410156 " clip-rule="nonzero"/></clipPath><clipPath id="78543dbd48"><path d="M 319.917969 198.410156 L 102.097656 198.410156 C 94.582031 198.410156 88.464844 204.523438 88.464844 212.042969 C 88.464844 219.558594 94.582031 225.675781 102.097656 225.675781 L 319.917969 225.675781 C 327.4375 225.675781 333.550781 219.558594 333.550781 212.042969 C 333.550781 204.523438 327.4375 198.410156 319.917969 198.410156 Z M 319.917969 225.316406 L 102.097656 225.316406 C 94.777344 225.316406 88.824219 219.363281 88.824219 212.042969 C 88.824219 204.722656 94.777344 198.765625 102.097656 198.765625 L 319.917969 198.765625 C 327.238281 198.765625 333.195312 204.722656 333.195312 212.042969 C 333.195312 219.363281 327.238281 225.316406 319.917969 225.316406 Z M 319.917969 225.316406 " clip-rule="nonzero"/></clipPath><clipPath id="941958eeee"><path d="M 68.742188 136 L 120 136 L 120 187.714844 L 68.742188 187.714844 Z M 68.742188 136 " clip-rule="nonzero"/></clipPath><mask id="0becafd871"><g filter="url(#15bfc53e6c)"><rect x="-37.5" width="450" fill="#000000" y="-37.499999" height="449.999989" fill-opacity="0.7"/></g></mask><clipPath id="d24bd3cfdc"><path d="M 0.742188 0.800781 L 51.519531 0.800781 L 51.519531 51.679688 L 0.742188 51.679688 Z M 0.742188 0.800781 " clip-rule="nonzero"/></clipPath><clipPath id="3f7a84a56f"><rect x="0" width="52" y="0" height="52"/></clipPath><clipPath id="e285d9cf22"><path d="M 82 136 L 133.242188 136 L 133.242188 187.714844 L 82 187.714844 Z M 82 136 " clip-rule="nonzero"/></clipPath><mask id="424c75b4e0"><g filter="url(#15bfc53e6c)"><rect x="-37.5" width="450" fill="#000000" y="-37.499999" height="449.999989" fill-opacity="0.7"/></g></mask><clipPath id="fb639c0376"><path d="M 0.800781 0.800781 L 51.242188 0.800781 L 51.242188 51.679688 L 0.800781 51.679688 Z M 0.800781 0.800781 " clip-rule="nonzero"/></clipPath><clipPath id="a70cc93e25"><rect x="0" width="52" y="0" height="52"/></clipPath></defs><g clip-path="url(#4cf65dfda3)"><g clip-path="url(#78543dbd48)"><path fill="#ffffff" d="M 88.464844 198.410156 L 333.523438 198.410156 L 333.523438 225.675781 L 88.464844 225.675781 Z M 88.464844 198.410156 " fill-opacity="1" fill-rule="nonzero"/></g></g><g fill="#ffffff" fill-opacity="1"><g transform="translate(118.742451, 209.492053)"><g><path d="M 4.53125 0.15625 C 3.789062 0.15625 3.101562 -0.0351562 2.46875 -0.421875 C 1.84375 -0.816406 1.335938 -1.347656 0.953125 -2.015625 C 0.578125 -2.679688 0.390625 -3.410156 0.390625 -4.203125 C 0.390625 -4.992188 0.578125 -5.722656 0.953125 -6.390625 C 1.335938 -7.054688 1.84375 -7.582031 2.46875 -7.96875 C 3.101562 -8.363281 3.789062 -8.5625 4.53125 -8.5625 C 5.195312 -8.5625 5.789062 -8.410156 6.3125 -8.109375 C 6.84375 -7.804688 7.28125 -7.414062 7.625 -6.9375 C 7.96875 -6.46875 8.203125 -5.957031 8.328125 -5.40625 L 6.546875 -5.40625 C 6.429688 -5.8125 6.195312 -6.160156 5.84375 -6.453125 C 5.488281 -6.753906 5.050781 -6.90625 4.53125 -6.90625 C 4.09375 -6.90625 3.6875 -6.785156 3.3125 -6.546875 C 2.945312 -6.304688 2.65625 -5.976562 2.4375 -5.5625 C 2.21875 -5.15625 2.109375 -4.703125 2.109375 -4.203125 C 2.109375 -3.691406 2.21875 -3.226562 2.4375 -2.8125 C 2.65625 -2.40625 2.945312 -2.082031 3.3125 -1.84375 C 3.6875 -1.613281 4.09375 -1.5 4.53125 -1.5 C 5.050781 -1.5 5.488281 -1.644531 5.84375 -1.9375 C 6.207031 -2.226562 6.457031 -2.570312 6.59375 -2.96875 L 8.390625 -2.96875 C 8.265625 -2.4375 8.03125 -1.929688 7.6875 -1.453125 C 7.34375 -0.984375 6.898438 -0.597656 6.359375 -0.296875 C 5.828125 0.00390625 5.21875 0.15625 4.53125 0.15625 Z M 4.53125 0.15625 "/></g></g></g><g fill="#ffffff" fill-opacity="1"><g transform="translate(128.066465, 209.492053)"><g><path d="M 6.453125 0 L 0.84375 0 L 0.84375 -8.40625 L 2.5625 -8.40625 L 2.5625 -1.65625 L 6.453125 -1.65625 Z M 6.453125 0 "/></g></g></g><g fill="#ffffff" fill-opacity="1"><g transform="translate(135.24248, 209.492053)"><g><path d="M 2.5625 0 L 0.84375 0 L 0.84375 -8.40625 L 2.5625 -8.40625 Z M 2.15625 -9.0625 L 0.875 -9.0625 L 1.859375 -10.953125 L 3.5625 -10.953125 Z M 2.15625 -9.0625 "/></g></g></g><g fill="#ffffff" fill-opacity="1"><g transform="translate(139.238492, 209.492053)"><g><path d="M 6.140625 -2.90625 L 6.140625 -8.40625 L 7.796875 -8.40625 L 7.796875 0 L 6.234375 0 L 2.5 -5.5 L 2.5 0 L 0.84375 0 L 0.84375 -8.40625 L 2.40625 -8.40625 Z M 6.140625 -2.90625 "/></g></g></g><g fill="#ffffff" fill-opacity="1"><g transform="translate(148.478505, 209.492053)"><g><path d="M 2.5625 0 L 0.84375 0 L 0.84375 -8.40625 L 2.5625 -8.40625 Z M 2.5625 0 "/></g></g></g><g fill="#ffffff" fill-opacity="1"><g transform="translate(152.474516, 209.492053)"><g><path d="M 4.53125 0.15625 C 3.789062 0.15625 3.101562 -0.0351562 2.46875 -0.421875 C 1.84375 -0.816406 1.335938 -1.347656 0.953125 -2.015625 C 0.578125 -2.679688 0.390625 -3.410156 0.390625 -4.203125 C 0.390625 -4.992188 0.578125 -5.722656 0.953125 -6.390625 C 1.335938 -7.054688 1.84375 -7.582031 2.46875 -7.96875 C 3.101562 -8.363281 3.789062 -8.5625 4.53125 -8.5625 C 5.195312 -8.5625 5.789062 -8.410156 6.3125 -8.109375 C 6.84375 -7.804688 7.28125 -7.414062 7.625 -6.9375 C 7.96875 -6.46875 8.203125 -5.957031 8.328125 -5.40625 L 6.546875 -5.40625 C 6.429688 -5.8125 6.195312 -6.160156 5.84375 -6.453125 C 5.488281 -6.753906 5.050781 -6.90625 4.53125 -6.90625 C 4.09375 -6.90625 3.6875 -6.785156 3.3125 -6.546875 C 2.945312 -6.304688 2.65625 -5.976562 2.4375 -5.5625 C 2.21875 -5.15625 2.109375 -4.703125 2.109375 -4.203125 C 2.109375 -3.691406 2.21875 -3.226562 2.4375 -2.8125 C 2.65625 -2.40625 2.945312 -2.082031 3.3125 -1.84375 C 3.6875 -1.613281 4.09375 -1.5 4.53125 -1.5 C 5.050781 -1.5 5.488281 -1.644531 5.84375 -1.9375 C 6.207031 -2.226562 6.457031 -2.570312 6.59375 -2.96875 L 8.390625 -2.96875 C 8.265625 -2.4375 8.03125 -1.929688 7.6875 -1.453125 C 7.34375 -0.984375 6.898438 -0.597656 6.359375 -0.296875 C 5.828125 0.00390625 5.21875 0.15625 4.53125 0.15625 Z M 4.53125 0.15625 "/></g></g></g><g fill="#ffffff" fill-opacity="1"><g transform="translate(161.798529, 209.492053)"><g><path d="M 7.859375 0 L 6.0625 0 L 5.453125 -1.734375 L 2.28125 -1.734375 L 1.671875 0 L -0.078125 0 L 3.0625 -8.40625 L 4.734375 -8.40625 Z M 4.890625 -3.3125 L 3.859375 -6.265625 L 2.84375 -3.3125 Z M 4.890625 -3.3125 "/></g></g></g><g fill="#ffffff" fill-opacity="1"><g transform="translate(170.186541, 209.492053)"><g/></g></g><g fill="#ffffff" fill-opacity="1"><g transform="translate(173.810553, 209.492053)"><g><path d="M 0.84375 0 L 0.84375 -8.40625 L 3.625 -8.40625 C 4.375 -8.40625 5.066406 -8.210938 5.703125 -7.828125 C 6.335938 -7.453125 6.84375 -6.941406 7.21875 -6.296875 C 7.59375 -5.660156 7.78125 -4.960938 7.78125 -4.203125 C 7.78125 -3.429688 7.585938 -2.722656 7.203125 -2.078125 C 6.828125 -1.441406 6.320312 -0.9375 5.6875 -0.5625 C 5.050781 -0.1875 4.363281 0 3.625 0 Z M 3.625 -1.65625 C 4.050781 -1.65625 4.453125 -1.765625 4.828125 -1.984375 C 5.203125 -2.210938 5.5 -2.519531 5.71875 -2.90625 C 5.945312 -3.289062 6.0625 -3.722656 6.0625 -4.203125 C 6.0625 -4.671875 5.945312 -5.097656 5.71875 -5.484375 C 5.5 -5.878906 5.203125 -6.1875 4.828125 -6.40625 C 4.453125 -6.632812 4.050781 -6.75 3.625 -6.75 L 2.5625 -6.75 L 2.5625 -1.65625 Z M 3.625 -1.65625 "/></g></g></g><g fill="#ffffff" fill-opacity="1"><g transform="translate(182.582575, 209.492053)"><g><path d="M 2.5625 -3.484375 L 2.5625 -1.625 L 6.703125 -1.625 L 6.703125 0 L 0.84375 0 L 0.84375 -8.40625 L 6.59375 -8.40625 L 6.59375 -6.765625 L 2.5625 -6.765625 L 2.5625 -5.078125 L 6.125 -5.078125 L 6.125 -3.484375 Z M 2.5625 -3.484375 "/></g></g></g><g fill="#ffffff" fill-opacity="1"><g transform="translate(190.334596, 209.492053)"><g/></g></g><g fill="#ffffff" fill-opacity="1"><g transform="translate(193.958608, 209.492053)"><g><path d="M 7.859375 0 L 6.0625 0 L 5.453125 -1.734375 L 2.28125 -1.734375 L 1.671875 0 L -0.078125 0 L 3.0625 -8.40625 L 4.734375 -8.40625 Z M 4.890625 -3.3125 L 3.859375 -6.265625 L 2.84375 -3.3125 Z M 4.890625 -3.3125 "/></g></g></g><g fill="#ffffff" fill-opacity="1"><g transform="translate(202.346623, 209.492053)"><g><path d="M 4.3125 0 L 2.609375 0 L 2.609375 -6.75 L 0.171875 -6.75 L 0.171875 -8.40625 L 6.75 -8.40625 L 6.75 -6.75 L 4.3125 -6.75 Z M 4.3125 0 "/></g></g></g><g fill="#ffffff" fill-opacity="1"><g transform="translate(209.870644, 209.492053)"><g><path d="M 2.5625 -3.484375 L 2.5625 -1.625 L 6.703125 -1.625 L 6.703125 0 L 0.84375 0 L 0.84375 -8.40625 L 6.59375 -8.40625 L 6.59375 -6.765625 L 2.5625 -6.765625 L 2.5625 -5.078125 L 6.125 -5.078125 L 6.125 -3.484375 Z M 2.5625 -3.484375 "/></g></g></g><g fill="#ffffff" fill-opacity="1"><g transform="translate(217.622659, 209.492053)"><g><path d="M 6.140625 -2.90625 L 6.140625 -8.40625 L 7.796875 -8.40625 L 7.796875 0 L 6.234375 0 L 2.5 -5.5 L 2.5 0 L 0.84375 0 L 0.84375 -8.40625 L 2.40625 -8.40625 Z M 6.140625 -2.90625 "/></g></g></g><g fill="#ffffff" fill-opacity="1"><g transform="translate(226.862676, 209.492053)"><g><path d="M 8.390625 -2.96875 C 8.265625 -2.457031 8.039062 -1.96875 7.71875 -1.5 C 7.394531 -1.03125 6.976562 -0.644531 6.46875 -0.34375 C 5.96875 -0.0390625 5.390625 0.125 4.734375 0.15625 L 4.609375 0.46875 C 4.953125 0.5 5.226562 0.613281 5.4375 0.8125 C 5.65625 1.007812 5.765625 1.253906 5.765625 1.546875 C 5.765625 1.910156 5.632812 2.191406 5.375 2.390625 C 5.125 2.597656 4.742188 2.703125 4.234375 2.703125 C 3.867188 2.703125 3.5625 2.65625 3.3125 2.5625 L 3.3125 1.734375 C 3.519531 1.804688 3.753906 1.84375 4.015625 1.84375 C 4.460938 1.84375 4.6875 1.71875 4.6875 1.46875 C 4.6875 1.375 4.628906 1.296875 4.515625 1.234375 C 4.398438 1.171875 4.226562 1.140625 4 1.140625 C 3.820312 1.140625 3.664062 1.164062 3.53125 1.21875 L 3.96875 0.125 C 3.3125 0.0195312 2.707031 -0.226562 2.15625 -0.625 C 1.613281 -1.03125 1.179688 -1.546875 0.859375 -2.171875 C 0.546875 -2.796875 0.390625 -3.472656 0.390625 -4.203125 C 0.390625 -4.992188 0.578125 -5.722656 0.953125 -6.390625 C 1.335938 -7.054688 1.84375 -7.582031 2.46875 -7.96875 C 3.101562 -8.363281 3.789062 -8.5625 4.53125 -8.5625 C 5.195312 -8.5625 5.789062 -8.410156 6.3125 -8.109375 C 6.84375 -7.804688 7.28125 -7.414062 7.625 -6.9375 C 7.96875 -6.46875 8.203125 -5.957031 8.328125 -5.40625 L 6.546875 -5.40625 C 6.429688 -5.8125 6.195312 -6.160156 5.84375 -6.453125 C 5.488281 -6.753906 5.050781 -6.90625 4.53125 -6.90625 C 4.09375 -6.90625 3.6875 -6.785156 3.3125 -6.546875 C 2.945312 -6.304688 2.65625 -5.976562 2.4375 -5.5625 C 2.21875 -5.15625 2.109375 -4.703125 2.109375 -4.203125 C 2.109375 -3.691406 2.21875 -3.226562 2.4375 -2.8125 C 2.65625 -2.40625 2.945312 -2.082031 3.3125 -1.84375 C 3.6875 -1.613281 4.09375 -1.5 4.53125 -1.5 C 5.050781 -1.5 5.488281 -1.644531 5.84375 -1.9375 C 6.207031 -2.226562 6.457031 -2.570312 6.59375 -2.96875 Z M 8.390625 -2.96875 "/></g></g></g><g fill="#ffffff" fill-opacity="1"><g transform="translate(236.186692, 209.492053)"><g><path d="M 7.859375 0 L 6.0625 0 L 5.453125 -1.734375 L 2.28125 -1.734375 L 1.671875 0 L -0.078125 0 L 3.0625 -8.40625 L 4.734375 -8.40625 Z M 4.890625 -3.3125 L 3.859375 -6.265625 L 2.84375 -3.3125 Z M 4.78125 -9.125 C 4.539062 -9.125 4.34375 -9.160156 4.1875 -9.234375 C 4.039062 -9.304688 3.882812 -9.40625 3.71875 -9.53125 C 3.613281 -9.613281 3.523438 -9.675781 3.453125 -9.71875 C 3.390625 -9.757812 3.3125 -9.78125 3.21875 -9.78125 C 3.09375 -9.78125 2.984375 -9.722656 2.890625 -9.609375 C 2.804688 -9.492188 2.765625 -9.351562 2.765625 -9.1875 L 1.75 -9.1875 C 1.75 -9.726562 1.863281 -10.140625 2.09375 -10.421875 C 2.332031 -10.710938 2.640625 -10.859375 3.015625 -10.859375 C 3.253906 -10.859375 3.445312 -10.820312 3.59375 -10.75 C 3.75 -10.675781 3.910156 -10.578125 4.078125 -10.453125 C 4.179688 -10.359375 4.265625 -10.289062 4.328125 -10.25 C 4.398438 -10.21875 4.476562 -10.203125 4.5625 -10.203125 C 4.6875 -10.203125 4.796875 -10.253906 4.890625 -10.359375 C 4.984375 -10.472656 5.03125 -10.617188 5.03125 -10.796875 L 6.046875 -10.796875 C 6.046875 -10.253906 5.925781 -9.835938 5.6875 -9.546875 C 5.457031 -9.265625 5.15625 -9.125 4.78125 -9.125 Z M 4.78125 -9.125 "/></g></g></g><g fill="#ffffff" fill-opacity="1"><g transform="translate(244.574707, 209.492053)"><g><path d="M 4.53125 0.15625 C 3.789062 0.15625 3.101562 -0.0351562 2.46875 -0.421875 C 1.84375 -0.816406 1.335938 -1.347656 0.953125 -2.015625 C 0.578125 -2.679688 0.390625 -3.410156 0.390625 -4.203125 C 0.390625 -4.992188 0.578125 -5.722656 0.953125 -6.390625 C 1.335938 -7.054688 1.84375 -7.582031 2.46875 -7.96875 C 3.101562 -8.363281 3.789062 -8.5625 4.53125 -8.5625 C 5.257812 -8.5625 5.941406 -8.363281 6.578125 -7.96875 C 7.210938 -7.582031 7.71875 -7.054688 8.09375 -6.390625 C 8.46875 -5.722656 8.65625 -4.992188 8.65625 -4.203125 C 8.65625 -3.410156 8.46875 -2.679688 8.09375 -2.015625 C 7.71875 -1.347656 7.210938 -0.816406 6.578125 -0.421875 C 5.941406 -0.0351562 5.257812 0.15625 4.53125 0.15625 Z M 4.53125 -1.5 C 4.957031 -1.5 5.351562 -1.613281 5.71875 -1.84375 C 6.09375 -2.082031 6.390625 -2.40625 6.609375 -2.8125 C 6.828125 -3.226562 6.9375 -3.691406 6.9375 -4.203125 C 6.9375 -4.703125 6.828125 -5.15625 6.609375 -5.5625 C 6.390625 -5.976562 6.09375 -6.304688 5.71875 -6.546875 C 5.351562 -6.785156 4.957031 -6.90625 4.53125 -6.90625 C 4.09375 -6.90625 3.6875 -6.785156 3.3125 -6.546875 C 2.945312 -6.304688 2.65625 -5.976562 2.4375 -5.5625 C 2.21875 -5.15625 2.109375 -4.703125 2.109375 -4.203125 C 2.109375 -3.691406 2.21875 -3.226562 2.4375 -2.8125 C 2.65625 -2.40625 2.945312 -2.082031 3.3125 -1.84375 C 3.6875 -1.613281 4.09375 -1.5 4.53125 -1.5 Z M 4.53125 -1.5 "/></g></g></g><g fill="#ffffff" fill-opacity="1"><g transform="translate(254.222728, 209.492053)"><g/></g></g><g fill="#ffffff" fill-opacity="1"><g transform="translate(257.84674, 209.492053)"><g><path d="M 5.875 -4.46875 C 6.25 -4.332031 6.578125 -4.09375 6.859375 -3.75 C 7.148438 -3.40625 7.296875 -2.957031 7.296875 -2.40625 C 7.296875 -1.957031 7.175781 -1.550781 6.9375 -1.1875 C 6.707031 -0.820312 6.382812 -0.53125 5.96875 -0.3125 C 5.550781 -0.101562 5.078125 0 4.546875 0 L 0.84375 0 L 0.84375 -8.40625 L 4.40625 -8.40625 C 4.894531 -8.40625 5.332031 -8.300781 5.71875 -8.09375 C 6.113281 -7.894531 6.414062 -7.625 6.625 -7.28125 C 6.84375 -6.945312 6.953125 -6.570312 6.953125 -6.15625 C 6.953125 -5.707031 6.84375 -5.335938 6.625 -5.046875 C 6.414062 -4.765625 6.164062 -4.570312 5.875 -4.46875 Z M 2.5625 -6.9375 L 2.5625 -5.078125 L 4.203125 -5.078125 C 4.503906 -5.078125 4.753906 -5.164062 4.953125 -5.34375 C 5.148438 -5.519531 5.25 -5.742188 5.25 -6.015625 C 5.25 -6.273438 5.144531 -6.492188 4.9375 -6.671875 C 4.738281 -6.847656 4.492188 -6.9375 4.203125 -6.9375 Z M 4.359375 -1.46875 C 4.710938 -1.46875 5.003906 -1.566406 5.234375 -1.765625 C 5.460938 -1.972656 5.578125 -2.238281 5.578125 -2.5625 C 5.578125 -2.882812 5.460938 -3.144531 5.234375 -3.34375 C 5.003906 -3.550781 4.710938 -3.65625 4.359375 -3.65625 L 2.5625 -3.65625 L 2.5625 -1.46875 Z M 4.359375 -1.46875 "/></g></g></g><g fill="#ffffff" fill-opacity="1"><g transform="translate(266.114752, 209.492053)"><g><path d="M 7.859375 0 L 6.0625 0 L 5.453125 -1.734375 L 2.28125 -1.734375 L 1.671875 0 L -0.078125 0 L 3.0625 -8.40625 L 4.734375 -8.40625 Z M 4.890625 -3.3125 L 3.859375 -6.265625 L 2.84375 -3.3125 Z M 4.359375 -9.0625 L 3.078125 -9.0625 L 4.0625 -10.953125 L 5.765625 -10.953125 Z M 4.359375 -9.0625 "/></g></g></g><g fill="#ffffff" fill-opacity="1"><g transform="translate(274.502767, 209.492053)"><g><path d="M 3.59375 0.15625 C 2.957031 0.15625 2.398438 0.0351562 1.921875 -0.203125 C 1.453125 -0.453125 1.082031 -0.785156 0.8125 -1.203125 C 0.539062 -1.628906 0.394531 -2.113281 0.375 -2.65625 L 2.09375 -2.65625 C 2.132812 -2.28125 2.28125 -1.972656 2.53125 -1.734375 C 2.789062 -1.492188 3.144531 -1.375 3.59375 -1.375 C 4.019531 -1.375 4.34375 -1.457031 4.5625 -1.625 C 4.78125 -1.800781 4.890625 -2.007812 4.890625 -2.25 C 4.890625 -2.457031 4.816406 -2.632812 4.671875 -2.78125 C 4.535156 -2.925781 4.359375 -3.046875 4.140625 -3.140625 C 3.921875 -3.234375 3.617188 -3.34375 3.234375 -3.46875 C 2.679688 -3.65625 2.222656 -3.835938 1.859375 -4.015625 C 1.503906 -4.191406 1.195312 -4.445312 0.9375 -4.78125 C 0.6875 -5.125 0.5625 -5.570312 0.5625 -6.125 C 0.5625 -6.582031 0.675781 -6.992188 0.90625 -7.359375 C 1.144531 -7.734375 1.484375 -8.023438 1.921875 -8.234375 C 2.367188 -8.453125 2.890625 -8.5625 3.484375 -8.5625 C 4.066406 -8.5625 4.582031 -8.441406 5.03125 -8.203125 C 5.476562 -7.960938 5.828125 -7.632812 6.078125 -7.21875 C 6.335938 -6.800781 6.476562 -6.332031 6.5 -5.8125 L 4.78125 -5.8125 C 4.757812 -6.164062 4.632812 -6.453125 4.40625 -6.671875 C 4.175781 -6.898438 3.867188 -7.015625 3.484375 -7.015625 C 3.109375 -7.015625 2.8125 -6.925781 2.59375 -6.75 C 2.382812 -6.582031 2.28125 -6.363281 2.28125 -6.09375 C 2.28125 -5.882812 2.351562 -5.707031 2.5 -5.5625 C 2.644531 -5.425781 2.820312 -5.3125 3.03125 -5.21875 C 3.238281 -5.132812 3.539062 -5.023438 3.9375 -4.890625 C 4.488281 -4.710938 4.941406 -4.535156 5.296875 -4.359375 C 5.660156 -4.191406 5.96875 -3.941406 6.21875 -3.609375 C 6.476562 -3.285156 6.609375 -2.851562 6.609375 -2.3125 C 6.609375 -1.84375 6.488281 -1.421875 6.25 -1.046875 C 6.019531 -0.671875 5.675781 -0.375 5.21875 -0.15625 C 4.757812 0.0507812 4.21875 0.15625 3.59375 0.15625 Z M 3.59375 0.15625 "/></g></g></g><g fill="#ffffff" fill-opacity="1"><g transform="translate(282.146779, 209.492053)"><g><path d="M 2.5625 0 L 0.84375 0 L 0.84375 -8.40625 L 2.5625 -8.40625 Z M 2.5625 0 "/></g></g></g><g fill="#ffffff" fill-opacity="1"><g transform="translate(286.142793, 209.492053)"><g><path d="M 4.53125 0.15625 C 3.789062 0.15625 3.101562 -0.0351562 2.46875 -0.421875 C 1.84375 -0.816406 1.335938 -1.347656 0.953125 -2.015625 C 0.578125 -2.679688 0.390625 -3.410156 0.390625 -4.203125 C 0.390625 -4.992188 0.578125 -5.722656 0.953125 -6.390625 C 1.335938 -7.054688 1.84375 -7.582031 2.46875 -7.96875 C 3.101562 -8.363281 3.789062 -8.5625 4.53125 -8.5625 C 5.195312 -8.5625 5.789062 -8.410156 6.3125 -8.109375 C 6.84375 -7.804688 7.28125 -7.414062 7.625 -6.9375 C 7.96875 -6.46875 8.203125 -5.957031 8.328125 -5.40625 L 6.546875 -5.40625 C 6.429688 -5.8125 6.195312 -6.160156 5.84375 -6.453125 C 5.488281 -6.753906 5.050781 -6.90625 4.53125 -6.90625 C 4.09375 -6.90625 3.6875 -6.785156 3.3125 -6.546875 C 2.945312 -6.304688 2.65625 -5.976562 2.4375 -5.5625 C 2.21875 -5.15625 2.109375 -4.703125 2.109375 -4.203125 C 2.109375 -3.691406 2.21875 -3.226562 2.4375 -2.8125 C 2.65625 -2.40625 2.945312 -2.082031 3.3125 -1.84375 C 3.6875 -1.613281 4.09375 -1.5 4.53125 -1.5 C 5.050781 -1.5 5.488281 -1.644531 5.84375 -1.9375 C 6.207031 -2.226562 6.457031 -2.570312 6.59375 -2.96875 L 8.390625 -2.96875 C 8.265625 -2.4375 8.03125 -1.929688 7.6875 -1.453125 C 7.34375 -0.984375 6.898438 -0.597656 6.359375 -0.296875 C 5.828125 0.00390625 5.21875 0.15625 4.53125 0.15625 Z M 4.53125 0.15625 "/></g></g></g><g fill="#ffffff" fill-opacity="1"><g transform="translate(295.466809, 209.492053)"><g><path d="M 7.859375 0 L 6.0625 0 L 5.453125 -1.734375 L 2.28125 -1.734375 L 1.671875 0 L -0.078125 0 L 3.0625 -8.40625 L 4.734375 -8.40625 Z M 4.890625 -3.3125 L 3.859375 -6.265625 L 2.84375 -3.3125 Z M 4.890625 -3.3125 "/></g></g></g><g clip-path="url(#941958eeee)"><g mask="url(#0becafd871)"><g transform="matrix(1, 0, 0, 1, 68, 136)"><g clip-path="url(#3f7a84a56f)"><g clip-path="url(#d24bd3cfdc)"><path fill="#085fce" d="M 51.269531 33.304688 C 51.269531 38.164062 49.378906 42.734375 45.941406 46.171875 C 42.394531 49.722656 37.734375 51.496094 33.070312 51.496094 C 28.410156 51.496094 23.75 49.722656 20.203125 46.171875 L 6.078125 32.046875 C 2.640625 28.609375 0.746094 24.039062 0.746094 19.179688 C 0.746094 14.316406 2.640625 9.746094 6.078125 6.3125 C 13.171875 -0.785156 24.71875 -0.785156 31.816406 6.3125 L 45.941406 20.4375 C 49.378906 23.875 51.269531 28.445312 51.269531 33.304688 Z M 51.269531 33.304688 " fill-opacity="1" fill-rule="nonzero"/></g></g></g></g></g><g clip-path="url(#e285d9cf22)"><g mask="url(#424c75b4e0)"><g transform="matrix(1, 0, 0, 1, 82, 136)"><g clip-path="url(#a70cc93e25)"><g clip-path="url(#fb639c0376)"><path fill="#3de2ff" d="M 51.496094 19.179688 C 51.496094 24.039062 49.601562 28.609375 46.164062 32.046875 L 32.039062 46.171875 C 28.492188 49.722656 23.832031 51.496094 19.171875 51.496094 C 14.511719 51.496094 9.851562 49.722656 6.300781 46.171875 C 2.863281 42.734375 0.972656 38.164062 0.972656 33.304688 C 0.972656 28.445312 2.863281 23.875 6.300781 20.4375 L 20.429688 6.3125 C 27.523438 -0.785156 39.070312 -0.785156 46.164062 6.3125 C 49.601562 9.746094 51.496094 14.316406 51.496094 19.179688 Z M 51.496094 19.179688 " fill-opacity="1" fill-rule="nonzero"/></g></g></g></g></g><g fill="#3de2ff" fill-opacity="1"><g transform="translate(133.510412, 185.638817)"><g><path d="M 14.023438 -34.246094 C 11.960938 -34.101562 10.085938 -33.476562 8.261719 -32.660156 C 7.398438 -32.277344 6.582031 -31.84375 5.90625 -31.171875 C 4.128906 -29.394531 3.121094 -27.28125 2.976562 -24.734375 C 2.832031 -22.046875 3.601562 -19.546875 5.621094 -17.820312 C 7.203125 -16.425781 8.5 -14.648438 10.613281 -13.832031 C 11.382812 -13.496094 12.054688 -12.921875 12.777344 -12.488281 C 14.023438 -11.816406 15.273438 -11.046875 16.472656 -10.277344 C 17.628906 -9.511719 18.78125 -8.695312 19.882812 -7.78125 C 20.75 -7.011719 20.652344 -4.996094 19.308594 -4.660156 C 17.289062 -4.082031 15.320312 -4.082031 13.398438 -4.753906 C 12.34375 -4.851562 11.09375 -5.667969 9.992188 -6.242188 C 8.695312 -6.867188 7.347656 -7.972656 6.4375 -9.125 C 6.195312 -9.414062 5.8125 -9.652344 5.570312 -9.847656 C 4.851562 -9.894531 4.5625 -9.511719 4.273438 -9.171875 C 3.792969 -8.597656 3.363281 -8.019531 2.976562 -7.445312 C 2.691406 -7.058594 1.824219 -6.050781 1.96875 -5.714844 C 2.304688 -4.945312 3.507812 -4.128906 4.128906 -3.601562 C 6.242188 -1.730469 8.695312 -0.578125 11.382812 0.0976562 C 14.601562 0.863281 17.867188 0.863281 21.132812 0.433594 C 23.96875 0.0976562 26.609375 -0.769531 28.867188 -2.546875 C 29.683594 -3.171875 30.449219 -3.890625 30.835938 -4.804688 C 31.363281 -6.242188 31.796875 -7.683594 31.796875 -9.316406 C 31.699219 -12.105469 30.691406 -14.410156 28.675781 -16.28125 C 27.378906 -17.578125 25.742188 -18.445312 24.304688 -19.597656 C 23.152344 -20.460938 21.902344 -21.132812 20.699219 -21.949219 C 19.402344 -22.8125 18.058594 -23.628906 16.761719 -24.542969 C 16.28125 -24.878906 15.851562 -25.359375 15.5625 -25.886719 C 14.839844 -27.136719 15.273438 -28.289062 16.570312 -28.722656 C 17.003906 -28.867188 17.386719 -28.960938 17.820312 -28.960938 C 19.164062 -29.058594 20.414062 -28.914062 21.660156 -28.480469 C 23.246094 -27.953125 24.542969 -27.039062 25.214844 -25.457031 C 25.359375 -25.167969 25.457031 -24.832031 25.886719 -24.589844 C 27.472656 -24.640625 29.203125 -24.304688 30.882812 -24.589844 C 30.980469 -25.3125 30.882812 -25.792969 30.691406 -26.320312 C 30.402344 -26.945312 29.972656 -27.472656 29.632812 -28.050781 C 28.097656 -30.546875 26.082031 -32.371094 23.246094 -33.285156 C 20.269531 -34.246094 17.195312 -34.484375 14.023438 -34.246094 Z M 14.023438 -34.246094 "/></g></g></g><g fill="#3de2ff" fill-opacity="1"><g transform="translate(166.070181, 185.638817)"><g><path d="M 19.597656 -25.792969 C 17.53125 -25.839844 15.464844 -25.792969 13.398438 -25.648438 C 10.664062 -25.40625 8.019531 -24.734375 5.476562 -23.726562 C 4.996094 -23.535156 4.417969 -23.390625 4.128906 -22.671875 C 4.996094 -21.179688 6.148438 -18.683594 6.675781 -18.347656 C 6.820312 -18.203125 7.636719 -18.730469 8.117188 -18.972656 C 9.414062 -19.691406 10.277344 -19.789062 11.625 -20.125 C 13.496094 -20.605469 15.175781 -20.894531 17.097656 -20.21875 C 18.730469 -19.644531 19.691406 -18.394531 19.5 -16.617188 C 19.164062 -16.523438 18.585938 -16.667969 18.25 -16.617188 C 17.386719 -16.570312 16.570312 -16.714844 15.707031 -16.714844 C 13.351562 -16.808594 11 -16.523438 8.742188 -15.898438 C 6.484375 -15.273438 4.660156 -14.074219 3.457031 -12.054688 C 2.210938 -9.894531 1.875 -7.636719 2.402344 -5.234375 C 2.976562 -2.691406 4.609375 -1.007812 6.964844 0 C 9.078125 0.863281 11.335938 0.816406 13.59375 0.527344 C 15.945312 0.191406 18.105469 -0.625 19.980469 -2.210938 C 20.171875 -2.351562 20.316406 -2.546875 20.605469 -2.546875 C 21.660156 -2.015625 22.140625 -0.863281 23.054688 0.046875 C 25.601562 0.046875 28.144531 -0.238281 30.644531 0 C 30.929688 -0.382812 30.929688 -0.671875 30.882812 -1.007812 C 30.691406 -2.976562 30.738281 -5.140625 30.789062 -7.109375 C 30.835938 -10.132812 30.789062 -13.160156 30.738281 -16.1875 C 30.691406 -17.867188 30.210938 -19.453125 29.152344 -20.84375 C 28.625 -21.515625 28 -22.09375 27.328125 -22.621094 C 25.121094 -24.496094 22.574219 -25.695312 19.597656 -25.792969 Z M 19.691406 -12.007812 C 19.691406 -9.941406 19.546875 -8.019531 19.742188 -6.148438 C 19.210938 -5.476562 18.585938 -4.996094 17.867188 -4.707031 C 16.28125 -3.988281 14.121094 -5.140625 13.878906 -6.917969 C 13.59375 -9.414062 14.554688 -11.238281 17.386719 -11.863281 C 18.105469 -12.007812 18.875 -12.007812 19.691406 -12.007812 Z M 19.691406 -12.007812 "/></g></g></g><g fill="#3de2ff" fill-opacity="1"><g transform="translate(198.966109, 185.638817)"><g><path d="M 22.621094 -37.800781 L 21.660156 -37.269531 C 20.796875 -36.789062 20.027344 -36.214844 19.308594 -35.542969 C 18.105469 -34.582031 16.667969 -34.003906 15.515625 -32.949219 C 14.695312 -32.179688 13.6875 -31.605469 12.726562 -31.027344 C 12.535156 -30.882812 12.34375 -30.738281 12.296875 -30.59375 C 12.96875 -29.25 13.878906 -28.480469 14.554688 -27.234375 C 14.746094 -27.039062 14.839844 -26.847656 15.035156 -26.800781 C 15.5625 -27.136719 16.378906 -27.617188 16.90625 -27.90625 C 18.105469 -28.53125 19.355469 -29.058594 20.558594 -29.683594 C 22.09375 -30.5 23.679688 -31.21875 25.265625 -31.988281 C 25.457031 -32.085938 25.648438 -32.179688 25.742188 -32.46875 C 24.785156 -34.292969 23.628906 -35.972656 22.621094 -37.800781 Z M 30.980469 -25.265625 C 30.355469 -25.167969 29.730469 -25.167969 29.152344 -25.121094 C 26.753906 -25.121094 24.398438 -25.070312 22.046875 -25.023438 C 21.230469 -25.023438 21.085938 -24.832031 21.085938 -24.109375 C 21.039062 -23.292969 21.085938 -22.527344 21.132812 -21.710938 C 21.230469 -19.742188 21.375 -17.769531 21.230469 -15.800781 C 21.085938 -13.6875 21.085938 -11.144531 21.132812 -9.03125 C 21.230469 -7.15625 20.941406 -6.4375 19.402344 -5.523438 C 17.914062 -4.660156 16.1875 -5.667969 15.464844 -6.773438 C 14.648438 -8.019531 14.3125 -9.367188 14.3125 -10.855469 C 14.359375 -14.601562 14.3125 -18.300781 14.3125 -22.046875 C 14.3125 -22.957031 14.3125 -23.917969 14.21875 -24.785156 C 13.542969 -25.070312 4.082031 -25.167969 3.21875 -24.925781 C 2.929688 -24.207031 2.976562 -23.4375 2.976562 -22.71875 C 3.074219 -19.261719 2.785156 -15.851562 2.882812 -12.390625 C 2.929688 -10.757812 2.929688 -9.078125 3.027344 -7.445312 C 3.121094 -5.957031 3.457031 -4.515625 4.609375 -3.265625 C 6.339844 -1.34375 8.355469 -0.0976562 10.949219 0.238281 C 12.152344 0.382812 13.351562 0.433594 14.554688 0.527344 C 17.050781 0.769531 18.875 0 20.941406 -1.296875 C 21.902344 -1.875 22.191406 -2.210938 22.957031 -2.976562 C 24.304688 -2.257812 24.496094 -0.863281 25.601562 0.238281 C 27.855469 -0.046875 30.546875 0.046875 32.949219 -0.144531 C 32.707031 -8.355469 32.421875 -16.859375 32.5625 -24.832031 C 32.035156 -25.40625 31.460938 -25.359375 30.980469 -25.265625 Z M 30.980469 -25.265625 "/></g></g></g><g fill="#3de2ff" fill-opacity="1"><g transform="translate(233.927058, 185.638817)"><g><path d="M 32.804688 -33.910156 C 32.179688 -33.859375 31.554688 -33.71875 30.980469 -33.8125 C 29.296875 -34.003906 27.570312 -33.8125 25.886719 -33.910156 C 24.925781 -33.957031 23.917969 -33.765625 22.910156 -33.667969 C 22.429688 -31.941406 22.765625 -30.164062 22.71875 -28.433594 C 22.671875 -26.753906 22.574219 -24.542969 22.71875 -22.765625 C 22.238281 -23.199219 21.949219 -23.34375 21.757812 -23.535156 C 21.179688 -24.015625 20.507812 -24.542969 19.789062 -24.785156 C 19.019531 -25.023438 18.445312 -25.503906 17.628906 -25.601562 C 15.707031 -25.839844 13.6875 -26.082031 11.71875 -25.695312 C 9.03125 -25.214844 6.964844 -23.824219 5.234375 -21.757812 C 4.179688 -20.460938 3.601562 -18.972656 3.027344 -17.53125 C 2.496094 -16.136719 2.210938 -14.648438 2.160156 -13.207031 C 2.160156 -10.949219 2.738281 -8.886719 3.363281 -6.820312 C 3.9375 -4.996094 4.898438 -3.457031 6.582031 -2.351562 C 8.835938 -0.71875 11.285156 0.335938 14.023438 0.578125 C 15.226562 0.671875 16.378906 0.671875 17.53125 0.71875 C 18.972656 0.816406 20.269531 0.335938 21.515625 -0.335938 C 22.71875 -1.007812 23.871094 -1.730469 24.832031 -2.785156 C 25.742188 -2.066406 25.695312 -0.578125 26.703125 0.046875 C 28.675781 -0.046875 30.789062 -0.191406 32.949219 -0.046875 C 33.332031 0 33.621094 -0.191406 33.8125 -0.578125 C 33.71875 -2.449219 33.8125 -4.5625 33.8125 -6.386719 C 33.910156 -11.671875 34.003906 -16.953125 33.859375 -22.238281 C 33.8125 -25.457031 33.765625 -28.625 33.910156 -31.890625 C 33.910156 -32.324219 33.8125 -32.757812 33.765625 -33.1875 C 33.667969 -33.71875 33.378906 -33.957031 32.804688 -33.910156 Z M 21.179688 -19.835938 C 22.191406 -19.164062 22.765625 -18.300781 22.71875 -17.003906 C 22.671875 -13.59375 22.71875 -10.132812 22.71875 -6.722656 C 22.09375 -5.761719 21.179688 -5.285156 20.316406 -4.804688 C 19.597656 -4.417969 18.828125 -4.464844 18.105469 -4.753906 C 16.28125 -5.476562 15.371094 -7.011719 14.9375 -8.835938 C 14.3125 -11.09375 14.3125 -13.496094 14.839844 -15.800781 C 15.128906 -17.003906 15.320312 -18.203125 16.136719 -19.164062 C 17.339844 -20.652344 19.597656 -20.941406 21.179688 -19.835938 Z M 21.179688 -19.835938 "/></g></g></g><g fill="#3de2ff" fill-opacity="1"><g transform="translate(269.704399, 185.638817)"><g><path d="M 18.15625 -25.886719 C 16.1875 -26.082031 14.3125 -25.886719 12.34375 -25.40625 C 10.757812 -25.023438 10.132812 -24.640625 8.933594 -24.0625 C 7.492188 -23.390625 6.386719 -22.429688 5.425781 -21.230469 C 3.699219 -19.066406 2.738281 -16.617188 2.304688 -13.976562 C 1.96875 -11.863281 2.210938 -9.75 2.882812 -7.683594 C 3.601562 -5.621094 4.898438 -4.035156 6.53125 -2.785156 C 8.117188 -1.585938 9.460938 -0.769531 11.382812 -0.191406 C 12.921875 0.289062 13.929688 0.289062 15.464844 0.527344 C 17.050781 0.816406 18.683594 0.71875 20.21875 0.527344 C 22.765625 0.335938 24.253906 -0.144531 26.511719 -1.34375 C 27.664062 -1.96875 28.867188 -3.027344 29.828125 -4.082031 C 28.960938 -5.859375 27.90625 -7.925781 27.570312 -7.683594 C 27.039062 -7.445312 26.609375 -6.820312 26.175781 -6.484375 C 24.542969 -5.378906 23.679688 -4.707031 21.660156 -4.515625 C 20.027344 -4.324219 18.445312 -4.417969 17.003906 -5.1875 C 15.175781 -6.101562 14.074219 -8.308594 14.359375 -10.277344 C 14.792969 -10.328125 15.273438 -10.46875 15.707031 -10.46875 C 18.058594 -10.328125 20.363281 -10.519531 22.71875 -10.375 C 25.3125 -10.230469 26.609375 -10.46875 29.203125 -10.46875 C 29.539062 -10.46875 30.113281 -10.328125 30.164062 -10.664062 C 30.210938 -10.808594 30.257812 -11.09375 30.257812 -11.238281 C 30.402344 -14.3125 30.210938 -16.714844 28.816406 -19.308594 C 28.433594 -19.980469 28.144531 -20.75 27.570312 -21.324219 C 24.734375 -24.109375 22.140625 -25.503906 18.15625 -25.886719 Z M 18.78125 -20.078125 C 18.972656 -19.882812 19.117188 -19.691406 19.210938 -19.453125 C 19.644531 -17.964844 19.933594 -16.472656 19.5 -14.792969 C 17.675781 -14.890625 15.992188 -14.601562 14.167969 -14.792969 C 14.265625 -16.472656 14.457031 -18.105469 15.417969 -19.546875 C 16.1875 -20.75 17.820312 -20.988281 18.78125 -20.078125 Z M 18.78125 -20.078125 "/></g></g></g><g fill="#3de2ff" fill-opacity="1"><g transform="translate(301.207647, 185.638817)"><g><path d="M 11.574219 -25.742188 C 11.429688 -22.863281 11.480469 -20.125 11.625 -17.242188 C 10.183594 -17.003906 8.835938 -16.761719 7.445312 -16.953125 C 5.957031 -17.148438 4.464844 -16.761719 2.929688 -16.859375 C 2.832031 -15.035156 3.171875 -13.351562 2.976562 -11.625 C 4.371094 -11.144531 5.761719 -11.527344 7.15625 -11.429688 C 8.5 -11.382812 9.894531 -11.429688 11.285156 -11.429688 C 11.480469 -11.144531 11.429688 -10.808594 11.429688 -10.566406 C 11.429688 -8.933594 11.382812 -7.347656 11.382812 -5.714844 C 11.382812 -4.660156 11.144531 -3.507812 11.671875 -2.402344 C 13.207031 -2.304688 14.792969 -2.351562 16.332031 -2.402344 C 16.617188 -2.402344 16.808594 -2.546875 17.003906 -2.832031 C 17.097656 -5.570312 16.953125 -8.355469 17.148438 -11.191406 C 18.539062 -11.09375 19.789062 -11.480469 21.039062 -11.429688 C 22.285156 -11.335938 23.582031 -11.335938 24.925781 -11.429688 C 25.070312 -13.257812 24.6875 -14.984375 25.023438 -16.808594 C 23.726562 -17.433594 22.429688 -16.953125 21.179688 -17.050781 C 19.882812 -17.097656 18.539062 -17.050781 17.195312 -17.050781 C 17.050781 -17.433594 16.953125 -17.820312 16.953125 -18.25 C 16.953125 -20.316406 16.90625 -22.382812 17.003906 -24.496094 C 17.003906 -24.878906 17.050781 -25.265625 16.714844 -25.648438 C 15.082031 -25.886719 13.351562 -25.457031 11.574219 -25.742188 Z M 11.574219 -25.742188 "/></g></g></g></svg>